<svg width="137" height="111" viewBox="0 0 137 111" fill="none" xmlns="http://www.w3.org/2000/svg">
<g id="56">
<g id="Group 707">
<g id="Group 705">
<g id="Group 664">
<path id="Vector" d="M74.3249 106.907C102.325 106.907 125.025 84.207 125.025 56.107C125.025 28.007 102.225 5.30701 74.3249 5.30701C46.3249 5.30701 23.6249 28.007 23.6249 56.107C23.6249 84.207 46.3249 106.907 74.3249 106.907Z" fill="#EAEEF9"/>
<path id="Vector_2" d="M128.175 88.8838C130.439 88.8838 132.275 87.0482 132.275 84.7838C132.275 82.5195 130.439 80.6838 128.175 80.6838C125.911 80.6838 124.075 82.5195 124.075 84.7838C124.075 87.0482 125.911 88.8838 128.175 88.8838Z" fill="#EAEEF9"/>
<path id="Vector_3" d="M134.175 72.8838C135.721 72.8838 136.975 71.6302 136.975 70.0838C136.975 68.5374 135.721 67.2838 134.175 67.2838C132.629 67.2838 131.375 68.5374 131.375 70.0838C131.375 71.6302 132.629 72.8838 134.175 72.8838Z" fill="#EAEEF9"/>
<path id="Vector_4" d="M26.325 22.7071C27.8714 22.7071 29.125 21.4535 29.125 19.9071C29.125 18.3607 27.8714 17.1071 26.325 17.1071C24.7786 17.1071 23.525 18.3607 23.525 19.9071C23.525 21.4535 24.7786 22.7071 26.325 22.7071Z" fill="#EAEEF9"/>
<path id="Vector_5" d="M9.22496 76.707C12.0968 76.707 14.425 74.3789 14.425 71.507C14.425 68.6351 12.0968 66.307 9.22496 66.307C6.35308 66.307 4.02496 68.6351 4.02496 71.507C4.02496 74.3789 6.35308 76.707 9.22496 76.707Z" fill="#EAEEF9"/>
</g>
</g>
<path id="Vector_6" d="M80.6862 74.525H69.419C66.8083 74.525 64.6099 76.9334 64.6099 79.7932V85.9646C64.6099 92.2864 69.2816 97.4042 75.0526 97.4042C80.8236 97.4042 85.4954 92.2864 85.4954 85.9646V79.7932C85.4954 76.7828 83.2969 74.525 80.6862 74.525Z" fill="white"/>
<g id="46">
<g id="Group 824">
<path id="Vector_7" d="M67.1337 101.6C95.1337 101.6 117.834 78.9 117.834 50.8C117.834 22.7 95.1337 0 67.1337 0C39.1337 0 16.4337 22.7 16.4337 50.8C16.4337 78.9 39.1337 101.6 67.1337 101.6Z" fill="#EAEEF9"/>
<path id="Vector_8" d="M123.634 29.9C125.898 29.9 127.734 28.0643 127.734 25.7999C127.734 23.5356 125.898 21.7 123.634 21.7C121.369 21.7 119.534 23.5356 119.534 25.7999C119.534 28.0643 121.369 29.9 123.634 29.9Z" fill="#EAEEF9"/>
<path id="Vector_9" d="M129.634 13.8C131.18 13.8 132.434 12.5463 132.434 11C132.434 9.45355 131.18 8.19995 129.634 8.19995C128.087 8.19995 126.834 9.45355 126.834 11C126.834 12.5463 128.087 13.8 129.634 13.8Z" fill="#EAEEF9"/>
<path id="Vector_10" d="M12.9337 32.7999C14.4801 32.7999 15.7337 31.5463 15.7337 30C15.7337 28.4536 14.4801 27.2 12.9337 27.2C11.3873 27.2 10.1337 28.4536 10.1337 30C10.1337 31.5463 11.3873 32.7999 12.9337 32.7999Z" fill="#EAEEF9"/>
<path id="Vector_11" d="M18.1337 93.7C21.0055 93.7 23.3337 91.3719 23.3337 88.5C23.3337 85.6282 21.0055 83.3 18.1337 83.3C15.2618 83.3 12.9337 85.6282 12.9337 88.5C12.9337 91.3719 15.2618 93.7 18.1337 93.7Z" fill="#EAEEF9"/>
<g id="Group">
<g id="Vector_12" filter="url(#filter0_d_4047_29708)">
<path d="M114.134 30.5H27.4336C25.5336 30.5 24.0336 29 24.0336 27.1V7.59995C24.0336 5.69995 25.5336 4.19995 27.4336 4.19995H114.034C115.934 4.19995 117.434 5.69995 117.434 7.59995V27.1C117.534 29 115.934 30.5 114.134 30.5Z" fill="white"/>
</g>
<g id="Group_2">
<path id="Vector_13" d="M45.0336 17.2999C45.0336 19.4999 44.0336 21.4999 42.5336 22.8999C41.2336 24.0999 39.4336 24.7999 37.5336 24.7999C35.6336 24.7999 33.8336 24.0999 32.5336 22.8999C30.9336 21.4999 30.0336 19.4999 30.0336 17.2999C30.0336 13.1999 33.4336 9.79993 37.5336 9.79993C41.6336 9.79993 45.0336 13.1999 45.0336 17.2999Z" fill="#DCE1EE"/>
</g>
<g id="Group_3">
<path id="Vector_14" d="M69.6336 15.1H50.4336C49.9336 15.1 49.6336 14.7 49.6336 14.3V11.8C49.6336 11.3 50.0336 11 50.4336 11H69.6336C70.1336 11 70.4336 11.4 70.4336 11.8V14.3C70.4336 14.8 70.1336 15.1 69.6336 15.1Z" fill="#CED6E2"/>
<path id="Vector_15" d="M92.4336 23.6H50.4336C49.9336 23.6 49.6336 23.2 49.6336 22.8V20.3C49.6336 19.8 50.0336 19.5 50.4336 19.5H92.4336C92.9336 19.5 93.2336 19.9 93.2336 20.3V22.8C93.2336 23.3 92.8336 23.6 92.4336 23.6Z" fill="#CED6E2"/>
</g>
</g>
<g id="Group_4">
<g id="Vector_16" filter="url(#filter1_d_4047_29708)">
<path d="M114.134 96.1H27.4336C25.5336 96.1 24.0336 94.6 24.0336 92.7V73.2C24.0336 71.3 25.5336 69.8 27.4336 69.8H114.034C115.934 69.8 117.434 71.3 117.434 73.2V92.7C117.534 94.6 115.934 96.1 114.134 96.1Z" fill="white"/>
</g>
<g id="Group_5">
<path id="Vector_17" d="M45.0336 82.9C45.0336 85.1 44.0336 87.1 42.5336 88.5C41.2336 89.7 39.4336 90.4 37.5336 90.4C35.6336 90.4 33.8336 89.7 32.5336 88.5C30.9336 87.1 30.0336 85.1 30.0336 82.9C30.0336 78.8 33.4336 75.4 37.5336 75.4C41.6336 75.4 45.0336 78.8 45.0336 82.9Z" fill="#DCE1EE"/>
</g>
<g id="Group_6">
<path id="Vector_18" d="M69.6336 80.8001H50.4336C49.9336 80.8001 49.6336 80.4001 49.6336 80.0001V77.5001C49.6336 77.0001 50.0336 76.7001 50.4336 76.7001H69.6336C70.1336 76.7001 70.4336 77.1001 70.4336 77.5001V80.0001C70.4336 80.4001 70.1336 80.8001 69.6336 80.8001Z" fill="#CED6E2"/>
<path id="Vector_19" d="M92.4336 89.3001H50.4336C49.9336 89.3001 49.6336 88.9001 49.6336 88.5001V86.0001C49.6336 85.5001 50.0336 85.2001 50.4336 85.2001H92.4336C92.9336 85.2001 93.2336 85.6001 93.2336 86.0001V88.5001C93.2336 88.9001 92.8336 89.3001 92.4336 89.3001Z" fill="#CED6E2"/>
</g>
</g>
<g id="Group_7">
<g id="Vector_20" filter="url(#filter2_d_4047_29708)">
<path d="M99.4337 63.3H12.8337C10.9337 63.3 9.43365 61.8 9.43365 59.9V40.4C9.43365 38.5 10.9337 37 12.8337 37H99.4337C101.334 37 102.834 38.5 102.834 40.4V59.9C102.934 61.8 101.334 63.3 99.4337 63.3Z" fill="white"/>
</g>
<g id="Group_8">
<path id="Vector_21" d="M55.0336 47.9001H35.8336C35.3336 47.9001 35.0336 47.5 35.0336 47.1V44.6C35.0336 44.1 35.4336 43.8 35.8336 43.8H55.0336C55.5336 43.8 55.8336 44.2 55.8336 44.6V47.1C55.8336 47.6 55.5336 47.9001 55.0336 47.9001Z" fill="#CED6E2"/>
<path id="Vector_22" d="M77.8336 56.5H35.8336C35.3336 56.5 35.0336 56.1 35.0336 55.7V53.2C35.0336 52.7 35.4336 52.4 35.8336 52.4H77.7336C78.2336 52.4 78.5336 52.8 78.5336 53.2V55.7C78.6336 56.1 78.2336 56.5 77.8336 56.5Z" fill="#CED6E2"/>
</g>
<g id="User female 1">
<path id="Vector_23" d="M30.5337 50.1C30.5337 52.2 29.6337 54.1 28.2337 55.5C28.1337 55.6 28.1337 55.6 28.0337 55.7C26.7337 56.9 24.9337 57.6 23.0337 57.6C21.1337 57.6 19.4337 56.9 18.1337 55.8C18.1337 55.8 18.1337 55.8 18.0337 55.8C16.4337 54.4 15.4337 52.4 15.4337 50.1C15.4337 46 18.8337 42.6 22.9337 42.6C27.1337 42.6 30.5337 46 30.5337 50.1Z" fill="#DCE1EE"/>
<path id="Vector_24" d="M20.9337 51.6C21.0337 51.7 21.1337 51.8 21.2337 51.9C21.1337 51.8 21.0337 51.7 20.9337 51.6Z" fill="#3973F4"/>
</g>
</g>
</g>
</g>
</g>
</g>
<defs>
<filter id="filter0_d_4047_29708" x="15.0336" y="0.199951" width="111.404" height="44.3" filterUnits="userSpaceOnUse" color-interpolation-filters="sRGB">
<feFlood flood-opacity="0" result="BackgroundImageFix"/>
<feColorMatrix in="SourceAlpha" type="matrix" values="0 0 0 0 0 0 0 0 0 0 0 0 0 0 0 0 0 0 127 0" result="hardAlpha"/>
<feOffset dy="5"/>
<feGaussianBlur stdDeviation="4.5"/>
<feColorMatrix type="matrix" values="0 0 0 0 0.397708 0 0 0 0 0.47749 0 0 0 0 0.575 0 0 0 0.17 0"/>
<feBlend mode="normal" in2="BackgroundImageFix" result="effect1_dropShadow_4047_29708"/>
<feBlend mode="normal" in="SourceGraphic" in2="effect1_dropShadow_4047_29708" result="shape"/>
</filter>
<filter id="filter1_d_4047_29708" x="15.0336" y="65.8" width="111.404" height="44.3" filterUnits="userSpaceOnUse" color-interpolation-filters="sRGB">
<feFlood flood-opacity="0" result="BackgroundImageFix"/>
<feColorMatrix in="SourceAlpha" type="matrix" values="0 0 0 0 0 0 0 0 0 0 0 0 0 0 0 0 0 0 127 0" result="hardAlpha"/>
<feOffset dy="5"/>
<feGaussianBlur stdDeviation="4.5"/>
<feColorMatrix type="matrix" values="0 0 0 0 0.397708 0 0 0 0 0.47749 0 0 0 0 0.575 0 0 0 0.17 0"/>
<feBlend mode="normal" in2="BackgroundImageFix" result="effect1_dropShadow_4047_29708"/>
<feBlend mode="normal" in="SourceGraphic" in2="effect1_dropShadow_4047_29708" result="shape"/>
</filter>
<filter id="filter2_d_4047_29708" x="0.433655" y="33" width="111.404" height="44.3" filterUnits="userSpaceOnUse" color-interpolation-filters="sRGB">
<feFlood flood-opacity="0" result="BackgroundImageFix"/>
<feColorMatrix in="SourceAlpha" type="matrix" values="0 0 0 0 0 0 0 0 0 0 0 0 0 0 0 0 0 0 127 0" result="hardAlpha"/>
<feOffset dy="5"/>
<feGaussianBlur stdDeviation="4.5"/>
<feColorMatrix type="matrix" values="0 0 0 0 0.397708 0 0 0 0 0.47749 0 0 0 0 0.575 0 0 0 0.17 0"/>
<feBlend mode="normal" in2="BackgroundImageFix" result="effect1_dropShadow_4047_29708"/>
<feBlend mode="normal" in="SourceGraphic" in2="effect1_dropShadow_4047_29708" result="shape"/>
</filter>
</defs>
</svg>
