<svg width="199" height="208" viewBox="0 0 199 208" fill="none" xmlns="http://www.w3.org/2000/svg">
<g id="Comments">
<g id="Group 47131">
<g id="Group 47125">
<g id="08">
<path id="Vector" d="M94.2028 173.257C138.682 173.257 174.739 136.973 174.739 92.2148C174.739 47.4562 138.682 11.1722 94.2028 11.1722C49.7238 11.1722 13.6665 47.4562 13.6665 92.2148C13.6665 136.973 49.7238 173.257 94.2028 173.257Z" fill="#EAEEF9"/>
<path id="Vector_2" d="M194.045 100.036C196.555 97.7274 196.731 93.808 194.436 91.2817C192.142 88.7555 188.247 88.579 185.737 90.8876C183.226 93.1963 183.051 97.1157 185.345 99.6419C187.639 102.168 191.534 102.345 194.045 100.036Z" fill="#EAEEF9"/>
<path id="Vector_3" d="M29.6651 30.6398C31.7929 29.9439 32.9571 27.644 32.2655 25.5029C31.574 23.3618 29.2885 22.1902 27.1607 22.8862C25.033 23.5821 23.8687 25.882 24.5603 28.0231C25.2519 30.1642 27.5374 31.3358 29.6651 30.6398Z" fill="#EAEEF9"/>
<path id="Vector_4" d="M4.73195 48.244C6.17882 47.7708 6.97051 46.2069 6.50024 44.7509C6.02997 43.295 4.47582 42.4983 3.02896 42.9715C1.5821 43.4447 0.790408 45.0087 1.26068 46.4646C1.73095 47.9206 3.28509 48.7172 4.73195 48.244Z" fill="#EAEEF9"/>
<path id="Vector_5" d="M188.356 43.2924C189.413 42.3203 189.487 40.67 188.521 39.6063C187.555 38.5426 185.915 38.4684 184.858 39.4404C183.801 40.4124 183.727 42.0627 184.693 43.1264C185.659 44.1901 187.299 44.2644 188.356 43.2924Z" fill="#EAEEF9"/>
<path id="Vector_6" d="M122.947 5.16332C123.674 4.49474 123.725 3.35966 123.06 2.62805C122.396 1.89644 121.268 1.84534 120.541 2.51392C119.814 3.1825 119.763 4.31758 120.428 5.04919C121.092 5.7808 122.22 5.8319 122.947 5.16332Z" fill="#EAEEF9"/>
</g>
</g>
</g>
<g id="Group 47132">
<g id="path56_1_" filter="url(#filter0_d_2027_102026)">
<path d="M125.893 167.293C125.893 172.478 121.624 176.595 116.591 176.595H71.4544C66.2697 176.595 62 172.325 62 167.293V77.3241C62 72.1394 66.2697 68.0222 71.4544 68.0222H116.591C121.776 68.0222 125.893 72.2919 125.893 77.3241V167.293Z" fill="url(#paint0_linear_2027_102026)"/>
</g>
<path id="path58_1_" d="M121.013 153.722C121.013 156.619 118.726 158.754 115.981 158.754H72.3688C69.4715 158.754 67.3367 156.467 67.3367 153.722V79.0017C67.3367 76.1043 69.624 73.9695 72.3688 73.9695H115.981C118.878 73.9695 121.013 76.2568 121.013 79.0017V153.722Z" fill="#D5DDEA" stroke="#D6DCE8" stroke-width="1.87272" stroke-miterlimit="10"/>
<path id="circle60_1_" d="M94.0226 172.326C96.6334 172.326 98.7498 170.209 98.7498 167.599C98.7498 164.988 96.6334 162.871 94.0226 162.871C91.4118 162.871 89.2954 164.988 89.2954 167.599C89.2954 170.209 91.4118 172.326 94.0226 172.326Z" fill="#C4CFDD"/>
</g>
<path id="Vector_7" d="M97 52H91V105H97V52Z" fill="#939CAD"/>
<g id="Group">
<g id="Group_2">
<g id="Group 675">
<g id="Group_3">
<g id="Vector_8" filter="url(#filter1_d_2027_102026)">
<path d="M139.727 41.6715C139.727 50.6794 132.442 57.9641 123.356 57.9641C123.199 57.9641 121.868 57.9641 112.076 57.9641C105.262 57.9641 94.3738 57.9641 76.9846 57.9641H68.6816C57.7937 58.1991 49.0991 49.5045 49.0991 39.0083C49.0991 28.4338 57.8721 19.6608 68.9166 20.2091C78.3945 -9.3996 121.789 -5.24811 125.471 25.3789C133.617 26.3972 139.727 33.2902 139.727 41.6715Z" fill="url(#paint1_linear_2027_102026)"/>
</g>
</g>
<path id="Vector_9" d="M123.357 57.9643C132.365 57.9643 139.728 50.6796 139.728 41.6716C139.728 32.6637 132.365 25.379 123.357 25.379C114.349 25.379 106.986 32.6637 106.986 41.6716C106.986 50.6796 114.349 57.9643 123.357 57.9643Z" fill="url(#paint2_linear_2027_102026)"/>
<path id="Vector_10" d="M96.6463 58.1208C112.704 58.1208 125.785 45.118 125.785 29.0604C125.785 13.0028 112.704 0 96.6463 0C80.5887 0 67.5076 13.0028 67.5076 29.0604C67.5076 45.118 80.5103 58.1208 96.6463 58.1208Z" fill="url(#paint3_linear_2027_102026)"/>
</g>
</g>
<path id="Vector_11" d="M88.9492 29.6993C89.5682 29.082 89.5682 28.0942 88.9492 27.4769C88.3302 26.8595 87.5874 26.983 86.597 26.983C89.4444 19.8218 98.7294 18.2167 103.558 24.0197C105.415 25.9952 108.386 23.4024 106.653 21.4269C101.577 15.5003 92.5394 14.7595 86.597 19.8218C84.3687 21.6738 82.883 24.1432 82.1403 26.983C80.1595 26.983 79.7881 26.983 79.2929 27.4769C78.6739 28.0942 78.6739 29.082 79.2929 29.6993C84.9877 35.2554 83.502 35.2554 88.9492 29.6993Z" fill="#939CAD"/>
<path id="Vector_12" d="M113.216 33.2799L109.749 29.6993C109.13 29.082 108.14 29.082 107.521 29.6993L103.931 33.2799C103.312 33.8973 103.312 34.885 103.931 35.5024C104.55 36.1197 105.292 35.9963 106.283 35.9963C103.435 43.281 93.9029 44.7626 89.0747 38.5891C88.3319 37.6014 87.0939 37.4779 86.1035 38.2187C83.0085 40.8116 90.3127 46.4912 96.7502 46.4912C103.064 46.4912 108.883 42.1697 110.368 35.8728C112.349 35.8728 112.72 35.8728 113.216 35.3789C113.835 35.0085 113.835 34.0208 113.216 33.2799Z" fill="#939CAD"/>
</g>
<g id="Group 47793">
<g id="Rectangle 3112" filter="url(#filter2_d_2027_102026)">
<path d="M89.3803 96.8568L72.8796 123.158C70.8875 126.334 73.17 130.46 76.9185 130.46L109.92 130.46C113.668 130.46 115.951 126.334 113.959 123.158L97.4581 96.8568C95.5893 93.8781 91.2491 93.878 89.3803 96.8568Z" fill="url(#paint4_linear_2027_102026)"/>
</g>
<path id="!" d="M93.5219 105.34C92.3645 105.34 91.4448 106.312 91.5095 107.468L92.0102 116.416C92.0551 117.218 92.7186 117.845 93.5219 117.845C94.3253 117.845 94.9888 117.218 95.0337 116.416L95.5344 107.468C95.599 106.312 94.6794 105.34 93.5219 105.34ZM93.5153 123.813C94.5974 123.813 95.4419 122.938 95.4419 121.842C95.4419 120.745 94.5974 119.885 93.5153 119.885C92.4465 119.885 91.6019 120.745 91.6019 121.842C91.6019 122.938 92.4465 123.813 93.5153 123.813Z" fill="white"/>
</g>
</g>
<defs>
<filter id="filter0_d_2027_102026" x="41.172" y="57.6082" width="105.549" height="150.229" filterUnits="userSpaceOnUse" color-interpolation-filters="sRGB">
<feFlood flood-opacity="0" result="BackgroundImageFix"/>
<feColorMatrix in="SourceAlpha" type="matrix" values="0 0 0 0 0 0 0 0 0 0 0 0 0 0 0 0 0 0 127 0" result="hardAlpha"/>
<feOffset dy="10.414"/>
<feGaussianBlur stdDeviation="10.414"/>
<feColorMatrix type="matrix" values="0 0 0 0 0.397708 0 0 0 0 0.47749 0 0 0 0 0.575 0 0 0 0.27 0"/>
<feBlend mode="normal" in2="BackgroundImageFix" result="effect1_dropShadow_2027_102026"/>
<feBlend mode="normal" in="SourceGraphic" in2="effect1_dropShadow_2027_102026" result="shape"/>
</filter>
<filter id="filter1_d_2027_102026" x="20.6171" y="-14.1702" width="147.592" height="114.862" filterUnits="userSpaceOnUse" color-interpolation-filters="sRGB">
<feFlood flood-opacity="0" result="BackgroundImageFix"/>
<feColorMatrix in="SourceAlpha" type="matrix" values="0 0 0 0 0 0 0 0 0 0 0 0 0 0 0 0 0 0 127 0" result="hardAlpha"/>
<feOffset dy="14.241"/>
<feGaussianBlur stdDeviation="14.241"/>
<feColorMatrix type="matrix" values="0 0 0 0 0.397708 0 0 0 0 0.47749 0 0 0 0 0.575 0 0 0 0.27 0"/>
<feBlend mode="normal" in2="BackgroundImageFix" result="effect1_dropShadow_2027_102026"/>
<feBlend mode="normal" in="SourceGraphic" in2="effect1_dropShadow_2027_102026" result="shape"/>
</filter>
<filter id="filter2_d_2027_102026" x="54.6607" y="85.8815" width="77.517" height="70.8022" filterUnits="userSpaceOnUse" color-interpolation-filters="sRGB">
<feFlood flood-opacity="0" result="BackgroundImageFix"/>
<feColorMatrix in="SourceAlpha" type="matrix" values="0 0 0 0 0 0 0 0 0 0 0 0 0 0 0 0 0 0 127 0" result="hardAlpha"/>
<feOffset dy="8.74119"/>
<feGaussianBlur stdDeviation="8.74119"/>
<feColorMatrix type="matrix" values="0 0 0 0 0.397708 0 0 0 0 0.47749 0 0 0 0 0.575 0 0 0 0.27 0"/>
<feBlend mode="normal" in2="BackgroundImageFix" result="effect1_dropShadow_2027_102026"/>
<feBlend mode="normal" in="SourceGraphic" in2="effect1_dropShadow_2027_102026" result="shape"/>
</filter>
<linearGradient id="paint0_linear_2027_102026" x1="93.9259" y1="65.5108" x2="93.9259" y2="177.766" gradientUnits="userSpaceOnUse">
<stop stop-color="#FDFEFF"/>
<stop offset="0.9964" stop-color="#ECF0F5"/>
</linearGradient>
<linearGradient id="paint1_linear_2027_102026" x1="94.413" y1="23.9965" x2="94.3834" y2="58.593" gradientUnits="userSpaceOnUse">
<stop stop-color="white"/>
<stop offset="0.9964" stop-color="#ECF0F5"/>
</linearGradient>
<linearGradient id="paint2_linear_2027_102026" x1="105.244" y1="21.8713" x2="119.757" y2="37.7438" gradientUnits="userSpaceOnUse">
<stop stop-color="#BCCBE1"/>
<stop offset="0.9942" stop-color="white" stop-opacity="0"/>
</linearGradient>
<linearGradient id="paint3_linear_2027_102026" x1="64.779" y1="15.7253" x2="87.6523" y2="24.6764" gradientUnits="userSpaceOnUse">
<stop stop-color="#E2E8F0"/>
<stop offset="0.9942" stop-color="white" stop-opacity="0"/>
</linearGradient>
<linearGradient id="paint4_linear_2027_102026" x1="62.1308" y1="124.292" x2="92.5312" y2="154.482" gradientUnits="userSpaceOnUse">
<stop stop-color="#B0BACC"/>
<stop offset="1" stop-color="#969EAE"/>
</linearGradient>
</defs>
</svg>
