<svg width="79" height="86" viewBox="0 0 79 86" fill="none" xmlns="http://www.w3.org/2000/svg">
<path d="M78.0336 40.998C78.0417 54.7821 70.7599 67.5429 58.8886 74.548C58.846 74.591 58.7905 74.6187 58.7306 74.627C57.3116 75.495 55.5006 76.285 54.7126 76.679H54.6336C52.9922 77.3885 51.3083 77.995 49.5916 78.495C49.5126 78.495 49.4336 78.495 49.4336 78.574C49.347 78.5633 49.2602 78.5923 49.1976 78.653C47.5426 79.127 45.1796 79.521 44.7066 79.6C44.7066 79.837 37.4586 80.548 31.3126 79.206C27.7536 78.491 24.3081 77.296 21.0706 75.654C4.06309 66.8415 -4.03098 46.9856 1.96865 28.7944C7.96828 10.6031 26.2867 -0.541667 45.1998 2.49272C64.113 5.5271 78.0257 21.843 78.0336 40.998Z" fill="#E4E9EF"/>
<path d="M57.6415 80.2238C57.6279 82.9718 55.4036 85.1962 52.6555 85.2098H24.9905C22.2425 85.1962 20.0182 82.9718 20.0045 80.2238V15.2428C20.0182 12.4948 22.2425 10.2705 24.9905 10.2568H52.4905C55.2386 10.2705 57.4629 12.4948 57.4765 15.2428L57.6415 80.2238Z" fill="white"/>
<path d="M52.6555 10.0879C55.4036 10.1016 57.6279 12.3259 57.6415 15.0739V80.0539C57.6279 82.8019 55.4036 85.0262 52.6555 85.0399H24.9905C22.2429 85.0262 20.0188 82.8025 20.0045 80.0549V15.2349C20.0182 12.4869 22.2425 10.2626 24.9905 10.2489L52.6555 10.0879Z" fill="white"/>
<path d="M55.2295 15.5868V80.5678C55.2705 81.9434 54.192 83.0935 52.8165 83.1408H24.8295C23.4565 83.0881 22.381 81.9413 22.4165 80.5678V15.5868C22.381 14.2132 23.4565 13.0664 24.8295 13.0138H28.8505C29.1096 13.0029 29.3615 13.1011 29.5448 13.2845C29.7282 13.4679 29.8264 13.7197 29.8155 13.9788C29.8295 15.0388 30.6855 15.8948 31.7455 15.9088H45.7395C46.7996 15.8948 47.6555 15.0388 47.6695 13.9788C47.6315 13.4938 47.9859 13.0663 48.4695 13.0138H52.3295C53.0629 12.9371 53.7947 13.1721 54.3463 13.6615C54.8979 14.1508 55.2184 14.8495 55.2295 15.5868Z" fill="#E4E9EF"/>
<path d="M41.2316 13.6347H37.5316C37.1762 13.6347 36.8881 13.3466 36.8881 12.9912C36.8881 12.6358 37.1762 12.3477 37.5316 12.3477H41.2316C41.5764 12.3713 41.8509 12.6458 41.8746 12.9907C41.7186 13.3107 41.3966 13.6347 41.2316 13.6347Z" fill="#EAECEE"/>
<path d="M35.4456 13.9587H35.1236C34.7474 13.8733 34.4804 13.5389 34.4804 13.1532C34.4804 12.7674 34.7474 12.4331 35.1236 12.3477H35.4456C35.8217 12.4331 36.0887 12.7674 36.0887 13.1532C36.0887 13.5389 35.8217 13.8733 35.4456 13.9587Z" fill="#EAECEE"/>
<rect opacity="0.403" x="26.0335" y="20" width="26" height="44" rx="1" fill="white"/>
<rect opacity="0.403" x="26.0335" y="66" width="26" height="6" rx="1" fill="white"/>
<circle cx="2.77158" cy="11.5" r="2.5" fill="#E4E9EF"/>
<circle cx="7.27158" cy="2" r="2" fill="#E4E9EF"/>
<circle cx="73.3333" cy="13.293" r="1.63086" transform="rotate(6.02399 73.3333 13.293)" fill="#E4E9EF"/>
<circle cx="52.3678" cy="59.456" r="15.851" fill="white"/>
<path d="M60.7071 58.2084L58.5227 57.8514C58.3949 57.4131 58.22 56.9918 58.0012 56.593L59.2764 54.7759C59.3795 54.6292 59.3617 54.4292 59.235 54.3021L57.7976 52.8656C57.6693 52.7377 57.4675 52.7211 57.3204 52.8272L55.5305 54.1136C55.128 53.8911 54.703 53.7145 54.262 53.5862L53.881 51.411C53.8499 51.2343 53.6965 51.105 53.5169 51.105H51.4841C51.303 51.105 51.1485 51.2362 51.1193 51.415L50.766 53.5785C50.3225 53.706 49.8967 53.8808 49.4957 54.1003L47.7105 52.8253C47.5631 52.72 47.3624 52.737 47.2341 52.8645L45.7975 54.301C45.6707 54.4277 45.653 54.6273 45.7561 54.774L47.0124 56.5712C46.7888 56.9759 46.6106 57.4042 46.4809 57.8499L44.3258 58.2088C44.1476 58.2383 44.0168 58.3928 44.0168 58.5732V60.6058C44.0168 60.785 44.1454 60.9384 44.3217 60.9698L46.4768 61.3519C46.6058 61.7965 46.784 62.2248 47.0083 62.6306L45.7365 64.4093C45.6316 64.556 45.6482 64.7575 45.7757 64.8857L47.2127 66.3237C47.3395 66.4504 47.5394 66.4682 47.6861 66.3651L49.4861 65.1045C49.8901 65.3266 50.3169 65.5029 50.7593 65.6307L51.1201 67.7968C51.1493 67.9745 51.3034 68.105 51.4841 68.105H53.5169C53.6962 68.105 53.8496 67.9764 53.8806 67.8001L54.2668 65.6234C54.71 65.4929 55.1346 65.3155 55.5345 65.093L57.3474 66.3647C57.4945 66.4685 57.6941 66.4504 57.8212 66.3237L59.2582 64.8857C59.3861 64.7575 59.4028 64.5553 59.2967 64.4082L58.0038 62.6132C58.223 62.2141 58.3971 61.7921 58.5238 61.3538L60.7111 60.9698C60.8882 60.9387 61.0168 60.785 61.0168 60.6058V58.5732C61.0172 58.3921 60.8859 58.2376 60.7071 58.2084ZM52.5168 62.1919C51.0879 62.1919 49.9296 61.0337 49.9296 59.605C49.9296 58.1762 51.0879 57.018 52.5168 57.018C53.9456 57.018 55.104 58.1762 55.104 59.605C55.104 61.0337 53.9456 62.1919 52.5168 62.1919Z" fill="#273A47"/>
</svg>
