<svg width="20" height="20" viewBox="0 0 20 20" fill="none" xmlns="http://www.w3.org/2000/svg">
<g id="align-left-02">
<g id="Icon">
<path d="M11.6667 8.33331C12.4432 8.33331 12.8315 8.33331 13.1378 8.20645C13.5462 8.03729 13.8706 7.71283 14.0398 7.30445C14.1667 6.99817 14.1667 6.60988 14.1667 5.83331C14.1667 5.05674 14.1667 4.66846 14.0398 4.36217C13.8706 3.95379 13.5462 3.62934 13.1378 3.46018C12.8315 3.33331 12.4432 3.33331 11.6667 3.33331L5 3.33331C4.22343 3.33331 3.83515 3.33331 3.52886 3.46018C3.12048 3.62934 2.79602 3.95379 2.62687 4.36217C2.5 4.66846 2.5 5.05674 2.5 5.83331C2.5 6.60988 2.5 6.99817 2.62687 7.30445C2.79602 7.71283 3.12048 8.03729 3.52886 8.20645C3.83515 8.33331 4.22343 8.33331 5 8.33331L11.6667 8.33331Z" stroke="white" stroke-width="1.8" stroke-linecap="round" stroke-linejoin="round"/>
<path d="M15 16.6666C15.7766 16.6666 16.1649 16.6666 16.4711 16.5398C16.8795 16.3706 17.204 16.0462 17.3731 15.6378C17.5 15.3315 17.5 14.9432 17.5 14.1666C17.5 13.3901 17.5 13.0018 17.3731 12.6955C17.204 12.2871 16.8795 11.9627 16.4711 11.7935C16.1649 11.6666 15.7766 11.6666 15 11.6666H5C4.22343 11.6666 3.83515 11.6666 3.52886 11.7935C3.12048 11.9627 2.79602 12.2871 2.62687 12.6955C2.5 13.0018 2.5 13.3901 2.5 14.1666C2.5 14.9432 2.5 15.3315 2.62687 15.6378C2.79602 16.0462 3.12048 16.3706 3.52886 16.5398C3.83515 16.6666 4.22343 16.6666 5 16.6666L15 16.6666Z" stroke="white" stroke-width="1.8" stroke-linecap="round" stroke-linejoin="round"/>
</g>
</g>
</svg>
